<svg width="0" height="0" class="hidden">
<defs>
  <symbol fill="none" xmlns="http://www.w3.org/2000/svg" viewBox="0 0 32 32" id="burger">
    <path d="M4 5.33325H28V7.99992H4V5.33325ZM4 14.6666H28V17.3333H4V14.6666ZM4 23.9999H28V26.6666H4V23.9999Z" fill="current"></path>
  </symbol>
  <symbol fill="none" xmlns="http://www.w3.org/2000/svg" viewBox="0 0 24 24" id="fb">
    <path d="M14 19H19V5H5V19H12V14H10V12H12V10.346C12 9.009 12.14 8.524 12.4 8.035C12.6561 7.55119 13.052 7.15569 13.536 6.9C13.918 6.695 14.393 6.572 15.223 6.519C15.552 6.498 15.978 6.524 16.501 6.599V8.499H16C15.083 8.499 14.704 8.542 14.478 8.663C14.3431 8.73236 14.2334 8.84215 14.164 8.977C14.044 9.203 14 9.427 14 10.345V12H16.5L16 14H14V19ZM4 3H20C20.2652 3 20.5196 3.10536 20.7071 3.29289C20.8946 3.48043 21 3.73478 21 4V20C21 20.2652 20.8946 20.5196 20.7071 20.7071C20.5196 20.8946 20.2652 21 20 21H4C3.73478 21 3.48043 20.8946 3.29289 20.7071C3.10536 20.5196 3 20.2652 3 20V4C3 3.73478 3.10536 3.48043 3.29289 3.29289C3.48043 3.10536 3.73478 3 4 3Z" fill="current"></path>
  </symbol>
  <symbol fill="none" xmlns="http://www.w3.org/2000/svg" viewBox="0 0 24 24" id="ig">
    <path d="M12 9C11.2044 9 10.4413 9.31607 9.87868 9.87868C9.31607 10.4413 9 11.2044 9 12C9 12.7956 9.31607 13.5587 9.87868 14.1213C10.4413 14.6839 11.2044 15 12 15C12.7956 15 13.5587 14.6839 14.1213 14.1213C14.6839 13.5587 15 12.7956 15 12C15 11.2044 14.6839 10.4413 14.1213 9.87868C13.5587 9.31607 12.7956 9 12 9ZM12 7C13.3261 7 14.5979 7.52678 15.5355 8.46447C16.4732 9.40215 17 10.6739 17 12C17 13.3261 16.4732 14.5979 15.5355 15.5355C14.5979 16.4732 13.3261 17 12 17C10.6739 17 9.40215 16.4732 8.46447 15.5355C7.52678 14.5979 7 13.3261 7 12C7 10.6739 7.52678 9.40215 8.46447 8.46447C9.40215 7.52678 10.6739 7 12 7ZM18.5 6.75C18.5 7.08152 18.3683 7.39946 18.1339 7.63388C17.8995 7.8683 17.5815 8 17.25 8C16.9185 8 16.6005 7.8683 16.3661 7.63388C16.1317 7.39946 16 7.08152 16 6.75C16 6.41848 16.1317 6.10054 16.3661 5.86612C16.6005 5.6317 16.9185 5.5 17.25 5.5C17.5815 5.5 17.8995 5.6317 18.1339 5.86612C18.3683 6.10054 18.5 6.41848 18.5 6.75ZM12 4C9.526 4 9.122 4.007 7.971 4.058C7.187 4.095 6.661 4.2 6.173 4.39C5.739 4.558 5.426 4.759 5.093 5.093C4.78001 5.3954 4.53935 5.76458 4.389 6.173C4.199 6.663 4.094 7.188 4.058 7.971C4.006 9.075 4 9.461 4 12C4 14.474 4.007 14.878 4.058 16.029C4.095 16.812 4.2 17.339 4.389 17.826C4.559 18.261 4.759 18.574 5.091 18.906C5.428 19.242 5.741 19.443 6.171 19.609C6.665 19.8 7.191 19.906 7.971 19.942C9.075 19.994 9.461 20 12 20C14.474 20 14.878 19.993 16.029 19.942C16.811 19.905 17.338 19.8 17.826 19.611C18.259 19.442 18.574 19.241 18.906 18.909C19.243 18.572 19.444 18.259 19.61 17.829C19.8 17.336 19.906 16.809 19.942 16.029C19.994 14.925 20 14.539 20 12C20 9.526 19.993 9.122 19.942 7.971C19.905 7.189 19.8 6.661 19.61 6.173C19.4593 5.765 19.2191 5.39596 18.907 5.093C18.6047 4.77985 18.2355 4.53917 17.827 4.389C17.337 4.199 16.811 4.094 16.029 4.058C14.925 4.006 14.539 4 12 4ZM12 2C14.717 2 15.056 2.01 16.122 2.06C17.187 2.11 17.912 2.277 18.55 2.525C19.21 2.779 19.766 3.123 20.322 3.678C20.8305 4.1779 21.224 4.78259 21.475 5.45C21.722 6.087 21.89 6.813 21.94 7.878C21.987 8.944 22 9.283 22 12C22 14.717 21.99 15.056 21.94 16.122C21.89 17.187 21.722 17.912 21.475 18.55C21.2247 19.2178 20.8311 19.8226 20.322 20.322C19.822 20.8303 19.2173 21.2238 18.55 21.475C17.913 21.722 17.187 21.89 16.122 21.94C15.056 21.987 14.717 22 12 22C9.283 22 8.944 21.99 7.878 21.94C6.813 21.89 6.088 21.722 5.45 21.475C4.78233 21.2245 4.17753 20.8309 3.678 20.322C3.16941 19.8222 2.77593 19.2175 2.525 18.55C2.277 17.913 2.11 17.187 2.06 16.122C2.013 15.056 2 14.717 2 12C2 9.283 2.01 8.944 2.06 7.878C2.11 6.812 2.277 6.088 2.525 5.45C2.77524 4.78218 3.1688 4.17732 3.678 3.678C4.17767 3.16923 4.78243 2.77573 5.45 2.525C6.088 2.277 6.812 2.11 7.878 2.06C8.944 2.013 9.283 2 12 2Z" fill="current"></path>
  </symbol>
  <symbol fill="none" xmlns="http://www.w3.org/2000/svg" viewBox="0 0 16 16" id="mail">
    <path d="M2.00004 2H14C14.1769 2 14.3464 2.07024 14.4714 2.19526C14.5965 2.32029 14.6667 2.48986 14.6667 2.66667V13.3333C14.6667 13.5101 14.5965 13.6797 14.4714 13.8047C14.3464 13.9298 14.1769 14 14 14H2.00004C1.82323 14 1.65366 13.9298 1.52864 13.8047C1.40361 13.6797 1.33337 13.5101 1.33337 13.3333V2.66667C1.33337 2.48986 1.40361 2.32029 1.52864 2.19526C1.65366 2.07024 1.82323 2 2.00004 2ZM13.3334 4.82533L8.04804 9.55867L2.66671 4.81067V12.6667H13.3334V4.82533ZM3.00737 3.33333L8.04071 7.77467L13.0014 3.33333H3.00737Z" fill="current"></path>
  </symbol>
  <symbol fill="none" xmlns="http://www.w3.org/2000/svg" viewBox="0 0 24 24" id="in">
    <path d="M4 3H20C20.2652 3 20.5196 3.10536 20.7071 3.29289C20.8946 3.48043 21 3.73478 21 4V20C21 20.2652 20.8946 20.5196 20.7071 20.7071C20.5196 20.8946 20.2652 21 20 21H4C3.73478 21 3.48043 20.8946 3.29289 20.7071C3.10536 20.5196 3 20.2652 3 20V4C3 3.73478 3.10536 3.48043 3.29289 3.29289C3.48043 3.10536 3.73478 3 4 3ZM5 5V19H19V5H5ZM7.5 9C7.10218 9 6.72064 8.84196 6.43934 8.56066C6.15804 8.27936 6 7.89782 6 7.5C6 7.10218 6.15804 6.72064 6.43934 6.43934C6.72064 6.15804 7.10218 6 7.5 6C7.89782 6 8.27936 6.15804 8.56066 6.43934C8.84196 6.72064 9 7.10218 9 7.5C9 7.89782 8.84196 8.27936 8.56066 8.56066C8.27936 8.84196 7.89782 9 7.5 9ZM6.5 10H8.5V17.5H6.5V10ZM12 10.43C12.584 9.865 13.266 9.5 14 9.5C16.071 9.5 17.5 11.179 17.5 13.25V17.5H15.5V13.25C15.5 12.7859 15.3156 12.3408 14.9874 12.0126C14.6592 11.6844 14.2141 11.5 13.75 11.5C13.2859 11.5 12.8408 11.6844 12.5126 12.0126C12.1844 12.3408 12 12.7859 12 13.25V17.5H10V10H12V10.43Z" fill="current"></path>
  </symbol>
  <symbol fill="none" xmlns="http://www.w3.org/2000/svg" viewBox="0 0 16 16" id="map-mark">
    <path d="M8 15.8187L3.75734 11.576C2.91823 10.7369 2.34679 9.66777 2.11529 8.50389C1.88378 7.34 2.0026 6.13361 2.45673 5.03726C2.91086 3.9409 3.6799 3.00384 4.66659 2.34455C5.65328 1.68527 6.81332 1.33337 8 1.33337C9.18669 1.33337 10.3467 1.68527 11.3334 2.34455C12.3201 3.00384 13.0891 3.9409 13.5433 5.03726C13.9974 6.13361 14.1162 7.34 13.8847 8.50389C13.6532 9.66777 13.0818 10.7369 12.2427 11.576L8 15.8187ZM11.3 10.6333C11.9526 9.98066 12.397 9.14914 12.577 8.2439C12.7571 7.33867 12.6646 6.40039 12.3114 5.54769C11.9582 4.695 11.36 3.96619 10.5926 3.45343C9.82519 2.94068 8.92296 2.66699 8 2.66699C7.07704 2.66699 6.17481 2.94068 5.40739 3.45343C4.63997 3.96619 4.04183 4.695 3.68861 5.54769C3.33539 6.40039 3.24294 7.33867 3.42297 8.2439C3.603 9.14914 4.04741 9.98066 4.7 10.6333L8 13.9333L11.3 10.6333ZM8 8.66665C7.64638 8.66665 7.30724 8.52618 7.05719 8.27613C6.80715 8.02608 6.66667 7.68694 6.66667 7.33332C6.66667 6.9797 6.80715 6.64056 7.05719 6.39051C7.30724 6.14046 7.64638 5.99999 8 5.99999C8.35362 5.99999 8.69276 6.14046 8.94281 6.39051C9.19286 6.64056 9.33334 6.9797 9.33334 7.33332C9.33334 7.68694 9.19286 8.02608 8.94281 8.27613C8.69276 8.52618 8.35362 8.66665 8 8.66665Z" fill="current"></path>
  </symbol>
  <symbol fill="none" xmlns="http://www.w3.org/2000/svg" viewBox="0 0 16 16" id="phone">
    <path d="M6.244 7.12133C6.86956 8.22032 7.77968 9.13044 8.87867 9.756L9.468 8.93067C9.56277 8.79796 9.7029 8.70459 9.86187 8.66822C10.0208 8.63186 10.1876 8.65502 10.3307 8.73333C11.2735 9.24862 12.3148 9.55852 13.386 9.64267C13.5532 9.65592 13.7092 9.73169 13.823 9.85488C13.9368 9.97807 14 10.1396 14 10.3073V13.282C14 13.4471 13.9388 13.6063 13.8282 13.7288C13.7177 13.8513 13.5655 13.9285 13.4013 13.9453C13.048 13.982 12.692 14 12.3333 14C6.62667 14 2 9.37333 2 3.66667C2 3.308 2.018 2.952 2.05467 2.59867C2.0715 2.43446 2.14866 2.28235 2.27119 2.17176C2.39373 2.06116 2.55294 1.99996 2.718 2H5.69267C5.86037 1.99998 6.02193 2.06317 6.14512 2.17697C6.26831 2.29077 6.34408 2.44682 6.35733 2.614C6.44148 3.68519 6.75138 4.72645 7.26667 5.66933C7.34498 5.81238 7.36814 5.97916 7.33178 6.13813C7.29541 6.2971 7.20204 6.43723 7.06933 6.532L6.244 7.12133ZM4.56267 6.68333L5.82933 5.77867C5.46986 5.00273 5.22357 4.17923 5.098 3.33333H3.34C3.336 3.444 3.334 3.55533 3.334 3.66667C3.33333 8.63733 7.36267 12.6667 12.3333 12.6667C12.4447 12.6667 12.556 12.6647 12.6667 12.66V10.902C11.8208 10.7764 10.9973 10.5301 10.2213 10.1707L9.31667 11.4373C8.95244 11.2958 8.59867 11.1287 8.258 10.9373L8.21933 10.9153C6.91172 10.1711 5.82885 9.08828 5.08467 7.78067L5.06267 7.742C4.87127 7.40133 4.70419 7.04756 4.56267 6.68333Z" fill="current"></path>
  </symbol>
  <symbol fill="none" xmlns="http://www.w3.org/2000/svg" viewBox="0 0 24 24" id="upload">
    <path d="M4 19H20V12H22V20C22 20.2652 21.8946 20.5196 21.7071 20.7071C21.5196 20.8946 21.2652 21 21 21H3C2.73478 21 2.48043 20.8946 2.29289 20.7071C2.10536 20.5196 2 20.2652 2 20V12H4V19ZM14 9V15H10V9H5L12 2L19 9H14Z" fill="current"></path>
  </symbol>
  </defs>
</svg>