<svg width="204" height="563" viewBox="0 0 204 563" fill="none" xmlns="http://www.w3.org/2000/svg">
<g opacity="0.6" clip-path="url(#clip0_1_556)">
<path d="M219.626 94.2394C245.573 94.2394 266.607 73.1432 266.607 47.1197C266.607 21.0962 245.573 0 219.626 0C193.68 0 172.646 21.0962 172.646 47.1197C172.646 73.1432 193.68 94.2394 219.626 94.2394Z" fill="#FF0B53"/>
<path d="M250.444 415.52C260.913 391.079 249.644 362.754 225.276 352.255C200.907 341.755 172.666 353.057 162.197 377.498C151.729 401.939 162.998 430.264 187.366 440.764C211.735 451.263 239.976 439.961 250.444 415.52Z" stroke="#FF0B53" stroke-width="20" stroke-miterlimit="10"/>
<path d="M194.07 63.3411C194.07 68.8281 187.069 68.8281 187.069 74.3152C187.069 79.8023 194.07 79.8023 194.07 85.2893C194.07 90.7764 187.069 90.7764 187.069 96.2635C187.069 101.751 194.07 101.751 194.07 107.238C194.07 112.725 187.069 112.725 187.069 118.212C187.069 123.699 194.07 123.699 194.07 129.186C194.07 134.673 187.069 134.673 187.069 140.17C187.069 145.657 194.07 145.657 194.07 151.153" stroke="#17191D" stroke-miterlimit="10"/>
<path d="M152.102 136.342C125.159 163.365 125.159 207.185 152.102 234.208C179.045 261.23 222.735 261.23 249.678 234.208L152.102 136.342Z" fill="#FF0B53"/>
<path d="M172.388 238.994C172.388 238.342 171.862 237.814 171.211 237.814C170.561 237.814 170.035 238.342 170.035 238.994C170.035 239.647 170.561 240.174 171.211 240.174C171.862 240.174 172.388 239.647 172.388 238.994Z" fill="#EAEAEA"/>
<path d="M191.746 238.994C191.746 238.342 191.22 237.814 190.57 237.814C189.919 237.814 189.393 238.342 189.393 238.994C189.393 239.647 189.919 240.174 190.57 240.174C191.22 240.174 191.746 239.647 191.746 238.994Z" fill="#EAEAEA"/>
<path d="M172.388 256.914C172.388 256.261 171.862 255.734 171.211 255.734C170.561 255.734 170.035 256.261 170.035 256.914C170.035 257.566 170.561 258.094 171.211 258.094C171.862 258.094 172.388 257.566 172.388 256.914Z" fill="#17191D"/>
<path d="M191.746 256.914C191.746 256.261 191.22 255.734 190.57 255.734C189.919 255.734 189.393 256.261 189.393 256.914C189.393 257.566 189.919 258.094 190.57 258.094C191.22 258.094 191.746 257.566 191.746 256.914Z" fill="#17191D"/>
<path d="M172.388 274.833C172.388 274.181 171.862 273.653 171.211 273.653C170.561 273.653 170.035 274.181 170.035 274.833C170.035 275.485 170.561 276.013 171.211 276.013C171.862 276.013 172.388 275.485 172.388 274.833Z" fill="#17191D"/>
<path d="M191.746 274.833C191.746 274.181 191.22 273.653 190.57 273.653C189.919 273.653 189.393 274.181 189.393 274.833C189.393 275.485 189.919 276.013 190.57 276.013C191.22 276.013 191.746 275.485 191.746 274.833Z" fill="#17191D"/>
<path d="M172.388 292.743C172.388 292.09 171.862 291.563 171.211 291.563C170.561 291.563 170.035 292.09 170.035 292.743C170.035 293.395 170.561 293.923 171.211 293.923C171.862 293.923 172.388 293.395 172.388 292.743Z" fill="#17191D"/>
<path d="M191.746 292.743C191.746 292.09 191.22 291.563 190.57 291.563C189.919 291.563 189.393 292.09 189.393 292.743C189.393 293.395 189.919 293.923 190.57 293.923C191.22 293.923 191.746 293.395 191.746 292.743Z" fill="#17191D"/>
<path d="M172.388 310.662C172.388 310.01 171.862 309.482 171.211 309.482C170.561 309.482 170.035 310.01 170.035 310.662C170.035 311.314 170.561 311.842 171.211 311.842C171.862 311.842 172.388 311.314 172.388 310.662Z" fill="#17191D"/>
<path d="M191.746 310.662C191.746 310.01 191.22 309.482 190.57 309.482C189.919 309.482 189.393 310.01 189.393 310.662C189.393 311.314 189.919 311.842 190.57 311.842C191.22 311.842 191.746 311.314 191.746 310.662Z" fill="#17191D"/>
<path d="M179.112 479.428C184.583 479.428 184.583 486.45 190.053 486.45C195.524 486.45 195.524 479.428 200.995 479.428C206.466 479.428 206.466 486.45 211.937 486.45C217.408 486.45 217.408 479.428 222.878 479.428C228.349 479.428 228.349 486.45 233.82 486.45C239.291 486.45 239.291 479.428 244.762 479.428C250.233 479.428 250.233 486.45 255.713 486.45C261.184 486.45 261.184 479.428 266.664 479.428" stroke="#17191D" stroke-miterlimit="10"/>
<path d="M88.1082 252.538C88.1082 234.151 73.2247 219.245 54.8649 219.245C36.5052 219.245 21.6217 234.151 21.6217 252.538C21.6217 270.925 36.5052 285.831 54.865 285.831C73.2247 285.831 88.1082 270.925 88.1082 252.538Z" fill="#FF0B53"/>
<path d="M131.462 313.981L115.674 329.789L99.8895 313.981L88.1082 325.78L103.893 341.591L88.1082 357.399L99.8895 369.198L115.674 353.39L131.462 369.198L143.243 357.399L127.458 341.591L143.243 325.78L131.462 313.981Z" fill="#FF0B53"/>
</g>
<defs>
<clipPath id="clip0_1_556">
<rect width="440" height="563" fill="white"/>
</clipPath>
</defs>
</svg>
