<svg width="1854" height="992" viewBox="0 0 1854 992" fill="none" xmlns="http://www.w3.org/2000/svg">
<path d="M290.562 3.75748C480.831 -20.4075 562.614 119.587 515.472 215.208C468.33 310.828 258.945 331.038 288.213 485.91C317.494 640.796 62.938 710.82 62.938 710.82" stroke="white" stroke-miterlimit="10"/>
<path d="M1 44.1765C1 44.1765 146.044 96.705 290.359 77.8455C434.674 58.986 451.549 143.753 434.674 177.503C399.655 247.541 212.45 261 200.327 374.13C191.215 459.167 263.629 573.458 99.3205 634.059" stroke="white" stroke-miterlimit="10"/>
<path d="M65.6516 100.742C65.6516 100.742 213.909 81.828 187.435 165.393C157.101 261.176 85.8476 259.664 153.186 380.88C177.135 423.999 184.168 597.717 52.1786 562.698" stroke="white" stroke-miterlimit="10"/>
<path d="M316.819 197.712C353.636 197.712 383.482 181.429 383.482 161.343C383.482 141.257 353.636 124.974 316.819 124.974C280.002 124.974 250.156 141.257 250.156 161.343C250.156 181.429 280.002 197.712 316.819 197.712Z" stroke="white" stroke-miterlimit="10"/>
<path d="M1730.2 278.968C1730.2 278.968 1462.71 216.113 1381.9 480.091C1323.92 669.51 1318.98 772.798 1198.69 824.868C1078.42 876.937 1008.38 888.088 1001.2 944.464" stroke="white" stroke-miterlimit="10"/>
<path d="M1317.18 944.465C1317.18 944.465 1246.58 769.194 1432.9 677.624C1558.68 615.807 1499.72 405.936 1581.23 339.125C1645.88 286.151 1730.2 400.536 1730.2 400.536" stroke="white" stroke-miterlimit="10"/>
<path d="M1372.44 991.822C1372.44 991.822 1374.58 856.242 1518.24 767.358C1661.89 678.474 1605.66 524.938 1688.28 501.597C1770.89 478.255 1853.5 578.817 1853.5 578.817" stroke="white" stroke-miterlimit="10"/>
<path d="M1473.49 943.384C1473.49 943.384 1462.71 832.05 1572.25 817.686C1681.79 803.322 1775.17 925.024 1775.17 925.024" stroke="white" stroke-miterlimit="10"/>
</svg>
