<svg width="107" height="34" viewBox="0 0 107 34" fill="none" xmlns="http://www.w3.org/2000/svg">
<path d="M50.2049 10.7556V12.896H46.0223V24.3636H43.5285V12.896H39.3459V10.7556H50.2049Z" fill="#F2F2F2"/>
<path d="M50.3308 19.2778C50.3308 18.3745 50.4617 17.5825 50.7235 16.9018C50.9984 16.2211 51.3584 15.6582 51.8035 15.2131C52.2486 14.7549 52.7592 14.4145 53.3352 14.192C53.9112 13.9563 54.5003 13.8385 55.1024 13.8385C56.5163 13.8385 57.6159 14.2771 58.4014 15.1542C59.1999 16.0312 59.5992 17.3403 59.5992 19.0814C59.5992 19.2123 59.5926 19.3629 59.5795 19.5331C59.5795 19.6902 59.573 19.8342 59.5599 19.9651H52.7854C52.8508 20.7898 53.1388 21.4312 53.6494 21.8894C54.173 22.3345 54.9257 22.5571 55.9075 22.5571C56.4835 22.5571 57.0072 22.5047 57.4784 22.4C57.9628 22.2952 58.3424 22.184 58.6174 22.0662L58.9315 24.0102C58.8006 24.0756 58.6174 24.1476 58.3817 24.2262C58.1592 24.2916 57.8974 24.3505 57.5963 24.4029C57.3083 24.4683 56.9941 24.5207 56.6537 24.56C56.3134 24.5992 55.9664 24.6189 55.613 24.6189C54.7097 24.6189 53.9243 24.488 53.2566 24.2262C52.589 23.9512 52.0392 23.5782 51.6072 23.1069C51.1752 22.6225 50.8544 22.0596 50.645 21.4182C50.4355 20.7636 50.3308 20.0502 50.3308 19.2778ZM57.2232 18.2174C57.2232 17.8902 57.1774 17.5825 57.0857 17.2945C56.9941 16.9934 56.8566 16.7382 56.6734 16.5287C56.5032 16.3062 56.2872 16.136 56.0254 16.0182C55.7766 15.8872 55.4755 15.8218 55.1221 15.8218C54.7555 15.8218 54.4348 15.8938 54.1599 16.0378C53.885 16.1687 53.6494 16.3454 53.453 16.568C53.2697 16.7905 53.1257 17.0458 53.021 17.3338C52.9163 17.6218 52.8443 17.9163 52.805 18.2174H57.2232Z" fill="#F2F2F2"/>
<path d="M64.6907 22.6552C65.319 22.6552 65.7772 22.5832 66.0652 22.4392C66.3532 22.2822 66.4972 22.0203 66.4972 21.6538C66.4972 21.3134 66.3401 21.032 66.0259 20.8094C65.7248 20.5869 65.2208 20.3447 64.5139 20.0829C64.0819 19.9258 63.6827 19.7622 63.3161 19.592C62.9627 19.4087 62.655 19.1992 62.3932 18.9636C62.1314 18.728 61.9219 18.4465 61.7648 18.1192C61.6208 17.7789 61.5488 17.3665 61.5488 16.8822C61.5488 15.9396 61.8958 15.2 62.5896 14.6632C63.2834 14.1134 64.2259 13.8385 65.4172 13.8385C66.0194 13.8385 66.5954 13.8974 67.1452 14.0152C67.695 14.12 68.1074 14.2247 68.3823 14.3294L67.9503 16.2538C67.6885 16.136 67.3547 16.0312 66.9488 15.9396C66.543 15.8349 66.0718 15.7825 65.535 15.7825C65.0507 15.7825 64.6579 15.8676 64.3568 16.0378C64.0558 16.1949 63.9052 16.4436 63.9052 16.784C63.9052 16.9542 63.9314 17.1047 63.9838 17.2356C64.0492 17.3665 64.1539 17.4909 64.2979 17.6087C64.4419 17.7134 64.6318 17.8247 64.8674 17.9425C65.103 18.0472 65.391 18.1585 65.7314 18.2763C66.2943 18.4858 66.7721 18.6952 67.1648 18.9047C67.5576 19.1011 67.8783 19.3302 68.127 19.592C68.3888 19.8407 68.5787 20.1287 68.6965 20.456C68.8143 20.7832 68.8732 21.176 68.8732 21.6342C68.8732 22.616 68.5067 23.3622 67.7736 23.8727C67.0536 24.3702 66.0194 24.6189 64.671 24.6189C63.7678 24.6189 63.0412 24.5403 62.4914 24.3832C61.9416 24.2392 61.5554 24.1214 61.3328 24.0298L61.7452 22.0465C62.0987 22.1905 62.5176 22.328 63.0019 22.4589C63.4994 22.5898 64.0623 22.6552 64.6907 22.6552Z" fill="#F2F2F2"/>
<path d="M70.9749 11.384L73.3509 10.9912V14.0938H77.0033V16.0771H73.3509V20.2596C73.3509 21.0843 73.4818 21.6734 73.7436 22.0269C74.0055 22.3803 74.4506 22.5571 75.0789 22.5571C75.5109 22.5571 75.8906 22.5112 76.2178 22.4196C76.5582 22.328 76.8266 22.2429 77.0229 22.1643L77.4156 24.0494C77.1407 24.1672 76.7807 24.2851 76.3356 24.4029C75.8906 24.5338 75.3669 24.5992 74.7647 24.5992C74.0316 24.5992 73.4164 24.5011 72.9189 24.3047C72.4346 24.1083 72.0484 23.8269 71.7604 23.4603C71.4724 23.0807 71.2695 22.6291 71.1516 22.1054C71.0338 21.5687 70.9749 20.96 70.9749 20.2792V11.384Z" fill="#F2F2F2"/>
<path d="M81.6958 24.3636H79.3198V14.0938H81.6958V24.3636ZM81.951 11.0894C81.951 11.5345 81.807 11.888 81.519 12.1498C81.231 12.4116 80.8907 12.5425 80.4979 12.5425C80.0921 12.5425 79.7452 12.4116 79.4572 12.1498C79.1692 11.888 79.0252 11.5345 79.0252 11.0894C79.0252 10.6312 79.1692 10.2712 79.4572 10.0094C79.7452 9.74761 80.0921 9.6167 80.4979 9.6167C80.8907 9.6167 81.231 9.74761 81.519 10.0094C81.807 10.2712 81.951 10.6312 81.951 11.0894Z" fill="#F2F2F2"/>
<path d="M84.727 14.4276C85.1851 14.2967 85.7808 14.1723 86.5139 14.0545C87.247 13.9367 88.0586 13.8778 88.9488 13.8778C89.7866 13.8778 90.487 13.9956 91.0499 14.2312C91.6128 14.4538 92.0579 14.7745 92.3851 15.1934C92.7255 15.5992 92.9611 16.0967 93.0921 16.6858C93.2361 17.2618 93.3081 17.8967 93.3081 18.5905V24.3636H90.9321V18.9636C90.9321 18.4138 90.8928 17.9491 90.8142 17.5694C90.7488 17.1767 90.631 16.8625 90.4608 16.6269C90.3037 16.3782 90.0812 16.2014 89.7931 16.0967C89.5182 15.9789 89.1779 15.92 88.7721 15.92C88.471 15.92 88.1568 15.9396 87.8295 15.9789C87.5022 16.0182 87.2601 16.0509 87.103 16.0771V24.3636H84.727V14.4276Z" fill="#F2F2F2"/>
<path d="M98.0789 18.9636C98.0789 19.9716 98.2949 20.7112 98.7269 21.1825C99.172 21.6407 99.7415 21.8698 100.435 21.8698C100.815 21.8698 101.168 21.8174 101.496 21.7127C101.836 21.608 102.111 21.4836 102.32 21.3396V16.0182C102.15 15.9789 101.941 15.9462 101.692 15.92C101.443 15.8807 101.129 15.8611 100.749 15.8611C99.8855 15.8611 99.2244 16.1491 98.7662 16.7251C98.308 17.288 98.0789 18.0342 98.0789 18.9636ZM104.696 23.3229C104.696 24.9592 104.277 26.1571 103.44 26.9163C102.615 27.6756 101.345 28.0552 99.6302 28.0552C99.0018 28.0552 98.3866 28.0029 97.7844 27.8982C97.1953 27.7934 96.6586 27.656 96.1742 27.4858L96.6062 25.4632C97.012 25.6334 97.4702 25.7709 97.9807 25.8756C98.5044 25.9803 99.0673 26.0327 99.6695 26.0327C100.625 26.0327 101.306 25.8363 101.712 25.4436C102.117 25.0509 102.32 24.4683 102.32 23.696V23.3032C102.085 23.4211 101.771 23.5389 101.378 23.6567C100.998 23.7745 100.56 23.8334 100.062 23.8334C99.4077 23.8334 98.8055 23.7287 98.2557 23.5192C97.7189 23.3098 97.2542 23.0022 96.8615 22.5963C96.4818 22.1905 96.1807 21.6865 95.9582 21.0843C95.7487 20.4691 95.644 19.7622 95.644 18.9636C95.644 18.2174 95.7553 17.5302 95.9778 16.9018C96.2135 16.2734 96.5473 15.7367 96.9793 15.2916C97.4244 14.8465 97.9611 14.4996 98.5895 14.2509C99.2178 14.0022 99.9313 13.8778 100.73 13.8778C101.502 13.8778 102.235 13.9367 102.929 14.0545C103.623 14.1723 104.212 14.2967 104.696 14.4276V23.3229Z" fill="#F2F2F2"/>
<path fill-rule="evenodd" clip-rule="evenodd" d="M25.6486 4.74283C19.1605 5.06766 13.9997 10.4311 13.9997 17C13.9997 23.5688 19.1605 28.9323 25.6487 29.2571C23.2045 30.9849 20.2208 32 17 32C8.71573 32 2 25.2843 2 17C2 8.71573 8.71573 2 17 2C20.2208 2 23.2045 3.0151 25.6486 4.74283Z" fill="#FF0B53"/>
<path d="M36.9088 16.9999C36.9088 22.8742 32.1468 27.6363 26.2725 27.6363C20.3982 27.6363 15.6361 22.8742 15.6361 16.9999C15.6361 11.1256 20.3982 6.36353 26.2725 6.36353C32.1468 6.36353 36.9088 11.1256 36.9088 16.9999Z" fill="white"/>
</svg>
